<svg viewBox="0 0 78 63" fill="inherit" xmlns="http://www.w3.org/2000/svg"><path d="M53.4239 45.681C50.6015 42.5413 40.0847 30.8821 40.0847 30.8821C39.7973 30.5685 39.4015 30.3744 38.9461 30.3744C38.4906 30.3744 38.0575 30.5797 37.7663 30.9045L24.4943 45.6288C24.2442 45.9088 24.0874 46.2784 24.0874 46.6853C24.0874 47.0922 24.2479 47.5067 24.5167 47.7904L37.7999 62.5146C38.0874 62.8133 38.4906 63 38.9423 63C39.3941 63 39.801 62.8096 40.0885 62.5072L53.3679 47.768C53.633 47.4842 53.7973 47.1034 53.7973 46.6853C53.7973 46.297 53.6666 45.9536 53.4239 45.6848V45.681Z" fill="inherit"></path><path d="M77.5039 41.6528C77.5039 41.6528 75.4207 39.3344 75.417 39.3344L40.6821 0.783996C40.249 0.302396 39.6218 0 38.9237 0C38.2256 0 37.6357 0.283732 37.2064 0.739198L0.429331 41.5632C0.164264 41.8469 0 42.2277 0 42.6458C0 43.5194 0.709329 44.2288 1.58293 44.2288H16.2363C17.9499 44.2288 19.4992 43.5008 20.5707 42.3248C25.4651 36.9152 38.0389 22.9413 38.0389 22.9413C38.2554 22.6912 38.5728 22.5269 38.9349 22.5269C39.297 22.5269 39.5882 22.6762 39.8048 22.9114C39.8048 22.9114 52.961 37.4938 57.12 42.0933C58.352 43.456 59.6736 44.2325 61.6522 44.2325H76.2831C77.1567 44.2325 77.8661 43.5232 77.8661 42.6496C77.8661 42.2762 77.7354 41.929 77.5151 41.6602L77.5039 41.6528Z" fill="inherit"></path></svg>